<?xml version="1.0" encoding="utf-8"?>
<!-- Generator: Adobe Illustrator 22.0.1, SVG Export Plug-In . SVG Version: 6.00 Build 0)  -->
<svg version="1.1" id="Capa_1" xmlns="http://www.w3.org/2000/svg" xmlns:xlink="http://www.w3.org/1999/xlink" x="0px" y="0px"
	 viewBox="0 0 25 25" style="enable-background:new 0 0 25 25;" xml:space="preserve">
<path d="M4.5,18.2c1.5,1,4.6,1.8,8.3,1.8c3.8,0,6.9-0.8,8.2-2c0,0,0.4-0.3,0.6-0.6v4c0,1.8-3.8,3.2-8.9,3.2
	s-8.8-1.2-9.1-3.2v-4L4.5,18.2z M3.7,11.7v4c0.3,2,4.1,3.2,9.1,3.2s8.9-1.4,8.9-3.2v-4c-0.2,0.3-0.6,0.6-0.6,0.6
	c-1.3,1.2-4.4,2-8.2,2c-3.6,0-6.8-0.8-8.2-1.8L3.7,11.7z M3.7,6v4c0.3,2,4.1,3.2,9.1,3.2s8.9-1.4,8.9-3.2V6
	c-0.2,0.3-0.6,0.6-0.6,0.6c-1.3,1.2-4.4,2-8.2,2c-3.6,0-6.8-0.8-8.2-1.8L3.7,6z M12.6,1c-5,0-9,1.4-9,3.2c0,1.8,4,3.2,9,3.2
	s9-1.4,9-3.2C21.6,2.5,17.6,1,12.6,1z"/>
</svg>
