<?xml version="1.0" encoding="utf-8"?>
<!-- Generator: Adobe Illustrator 22.0.1, SVG Export Plug-In . SVG Version: 6.00 Build 0)  -->
<svg version="1.1" id="Capa_1" xmlns="http://www.w3.org/2000/svg" xmlns:xlink="http://www.w3.org/1999/xlink" x="0px" y="0px"
	 viewBox="0 0 25 25" style="enable-background:new 0 0 25 25;" xml:space="preserve">
<path d="M15.1,20.5l2.7,2.7H7.2l2.6-2.7H15.1z M24,3.2v14.6c0,0.7-0.6,1.4-1.4,1.4H2.4c-0.8,0-1.4-0.6-1.4-1.4V3.2
	c0-0.8,0.6-1.4,1.4-1.4h20.2C23.4,1.8,24,2.4,24,3.2z M22.2,3.8h-8.1c0,0,0,0,0,0.1v5.8h2.3L12.5,15L8.6,9.7h2.3V3.8c0,0,0,0,0-0.1
	H2.7v12.9h19.5V3.8z"/>
</svg>
