<?xml version="1.0" encoding="utf-8"?>
<!-- Generator: Adobe Illustrator 22.0.1, SVG Export Plug-In . SVG Version: 6.00 Build 0)  -->
<svg version="1.1" id="Capa_1" xmlns="http://www.w3.org/2000/svg" xmlns:xlink="http://www.w3.org/1999/xlink" x="0px" y="0px"
	 viewBox="0 0 25 25" style="enable-background:new 0 0 25 25;" xml:space="preserve">
<path d="M23.6,18.2l-3.8,1.5l0.5,0.7l0,0l2.5,3.1L21.1,25l-3-3.8l-1,1.5h0l-1.3,1.8l-1.2-4.4l-0.4-1.4l0,0l-0.9-3.4
	l-0.2-0.6l0,0l-0.7-2.5l2.6,1.4l0,0l1.6,0.9l0,0l2.8,1.5l0.9,0.5l0,0l2.1,1.1l0.1,0l0,0L23.6,18.2z M13.5,20.6l0.8,2.9
	c-0.7,0.1-1.4,0.2-2.1,0.2c-5.1,0-9.4-3.2-11-7.8c0,0,0-0.1,0-0.1c-0.4-1.2-0.7-2.5-0.7-3.9c0-1.4,0.2-2.7,0.7-3.9c0,0,0-0.1,0-0.1
	c1.6-4.5,6-7.8,11-7.8c5.1,0,9.4,3.2,11,7.8c0,0,0,0.1,0,0.1c0.4,1.2,0.7,2.5,0.7,3.9c0,1.4-0.2,2.7-0.7,3.9c0,0,0,0.1,0,0.1
	c-0.1,0.2-0.2,0.4-0.2,0.6l-3.3-1.8h2.2c0.3-0.9,0.4-1.8,0.4-2.8c0-1-0.1-1.9-0.4-2.8h-5.3c0.1,0.9,0.1,1.9,0.1,2.8
	c0,0.4,0,0.8,0,1.2L15,12.3c0-0.1,0-0.2,0-0.3c0-1,0-1.9-0.1-2.8l-5.3,0C9.5,10.1,9.4,11,9.4,12c0,1,0,1.9,0.1,2.8h2.3l0.5,1.7H9.7
	c0.2,1.1,0.4,2.1,0.7,3c0.6,1.8,1.3,2.6,1.8,2.6C12.5,22,13,21.6,13.5,20.6z M14.8,2.3c0.7,1.3,1.2,3.2,1.5,5.2l4.8,0
	C19.9,5,17.6,3,14.8,2.3z M9.7,7.5l4.9,0c-0.2-1.1-0.4-2.1-0.7-3c-0.6-1.8-1.3-2.6-1.8-2.6c-0.4,0-1.2,0.8-1.8,2.6
	C10.1,5.4,9.9,6.4,9.7,7.5z M3.2,7.5l4.8,0c0.3-2.1,0.8-3.9,1.5-5.2C6.8,3,4.5,5,3.2,7.5z M2.5,14.8l5.3,0c-0.1-0.9-0.1-1.9-0.1-2.8
	c0-0.9,0-1.9,0.1-2.8H2.5C2.3,10.1,2.2,11,2.2,12C2.2,13,2.3,13.9,2.5,14.8z M9.6,21.7c-0.7-1.3-1.2-3.2-1.5-5.2H3.2
	C4.5,19,6.8,20.9,9.6,21.7z"/>
</svg>
